<?xml version="1.0" encoding="UTF-8"?>
<svg id="Livello_1" data-name="Livello 1" xmlns="http://www.w3.org/2000/svg" viewBox="0 0 324.07 168.95">
  <g>
    <path d="M75.46,168.95l-3.44-9.09h-17.55l-3.44,9.09h-3.91l14.22-37h3.81l14.22,37h-3.91ZM55.8,156.37h14.9l-7.45-19.82-7.45,19.82Z"/>
    <path d="M103.68,165.46h17.97v3.49h-21.67v-37h21.41v3.49h-17.71v13.11h16.38v3.49h-16.38v13.42Z"/>
    <path d="M158.12,131.95c5.04,0,9.2,1.79,12.5,5.36,3.29,3.58,4.94,7.95,4.94,13.13s-1.65,9.56-4.94,13.13c-3.3,3.58-7.46,5.36-12.5,5.36h-14.27v-37h14.27ZM158.12,165.46c4.05,0,7.37-1.44,9.96-4.33,2.59-2.89,3.88-6.45,3.88-10.68s-1.29-7.79-3.88-10.68c-2.59-2.89-5.91-4.33-9.96-4.33h-10.57v30.02h10.57Z"/>
    <path d="M197.75,131.95h3.7v37h-3.7v-37Z"/>
    <path d="M229.47,165.46h16.91v3.49h-20.61v-37h3.7v33.51Z"/>
    <path d="M267.52,131.95h3.7v37h-3.7v-37Z"/>
    <path d="M320.16,168.95l-3.44-9.09h-17.55l-3.44,9.09h-3.91l14.22-37h3.81l14.22,37h-3.91ZM300.5,156.37h14.9l-7.45-19.82-7.45,19.82Z"/>
  </g>
  <polygon points="293.93 107.53 260.54 19.33 15.12 119 15.12 168.94 0 168.94 0 108.89 269.37 0 310.46 107.53 293.93 107.53"/>
</svg>